<svg width="240" height="270" viewBox="0 0 63.5 71.437" xmlns:xlink="http://www.w3.org/1999/xlink" xmlns="http://www.w3.org/2000/svg"><path style="display:inline;fill:#f3c242;fill-opacity:1;stroke:#956c29;stroke-width:.529167;stroke-linecap:butt;stroke-linejoin:bevel;stroke-miterlimit:4;stroke-dasharray:none;stroke-opacity:1" d="M28.514 15.43c-.123.437-.243 1.55-.013 2.406.096.358.312 1.008.977 1.848.327.412 1.386 1.439 1.878 1.937-.516-.513-1.631-1.55-2.062-1.892-3.167-2.704-7.44-.034-7.474 1.946-.16.361-.244.757-.24 1.197.153 3.697 3.301 4.922 6.407 4.077 1.882-.743 2.204-1.12 3.538-2.686-1.006 4.833-2.247 13.734-14.953 23.735.696.2 1.007.496 1.51.986 5.647-5.03 10.805-10.347 13.296-17.953l-.608 4.814c-.88.134-1.738 1.658-1.29 2.791l3.816-.01c.461-.967.126-2.334-.896-2.796l.266-11.187 3.306 11.293c-1.098.38-1.32 1.919-.992 3.021l3.957-.164c.258-1.273-.437-2.55-1.297-2.902l-.555-1.699c4.23 6.426 12.165 14.7 16.766 15.366l.674-1.323c-4.6-.325-16.863-12.466-20.665-24.1 1.518 1.364 2.293 2.354 4.155 2.818 3.105.844 5.653-1.329 5.785-4.13a2.836 2.836 0 0 0-.24-1.197c-2.218-4.327-6.01-3.235-7.473-1.946-.432.342-1.977 1.922-2.029 1.968.044-.057 1.479-1.565 1.795-1.964.39-.45.818-1.24.977-1.78.197-.67.122-1.636-.012-2.406-.472-1.668-2.434-3.536-4.152-3.536s-3.681 1.8-4.152 3.469zm6.674.027c.24 1.038.364 1.506.088 2.535-.346 1.29-1.566 2.174-2.2 3.147a1.847 1.847 0 0 0-.834-.008c-.639-.98-1.844-1.858-2.187-3.139-.276-1.028-.151-1.497.088-2.535.067-.29.185-.607.329-.926 1.237-1.592 3.675-.854 4.287-.172.156.314.362.808.429 1.098zm5.573 5.025c.728 1.594.824 3.3-.08 4.804-1.058.354-1.736.489-2.904.197-1.365-.366-2.46-1.733-3.346-2.319.014-.181.026-.304.005-.592.89-.588 1.978-1.949 3.34-2.315 1.457-.19 1.735-.143 2.985.225zm-13.157-.176c1.334.359 2.358 1.67 3.282 2.277-.002.277-.005.459.028.654-.908.599-1.964 1.934-3.31 2.295-1.343.207-1.694.167-2.905-.197-.782-1.567-.942-3.271-.08-4.804 1.197-.334 1.884-.495 2.985-.225z"/><path style="display:inline;fill:#f3c242;fill-opacity:1;stroke:#956c29;stroke-width:.529167;stroke-linecap:butt;stroke-linejoin:miter;stroke-miterlimit:4;stroke-dasharray:none;stroke-opacity:1" d="M38.934 43.059c-.88.003-1.45.052-2.543.138-.662 0-.516.934.167 1.286v10.142c-.543.488-.631 1.2-.2 1.2h2.699c.899 0 .28-.915-.105-1.217V51.72c.532-.711 1.072-.807 1.689 0 .373.487.695 2.648.484 2.888-.357.404-.962 1.236-.005 1.236l3.2-.02c0-1.583-.644-4.032-2.258-5.713v-.848c1.886-.852 2.861-4.157 0-5.77-.556-.313-1.664-.44-3.129-.434zm-.082 1.159c2.398 0 2.72 1.412 2.763 2.342.043.93-.83 2.262-2.763 2.262zm-9.443-1.16c-.88.004-1.45.053-2.543.139-.662 0-.516.934.167 1.286v10.142c-.543.488-.631 1.2-.2 1.2h2.699c.899 0 .28-.915-.105-1.217V51.72c.532-.711 1.072-.807 1.689 0 .373.487.695 2.648.484 2.888-.357.404-.962 1.236-.005 1.236l3.2-.02c0-1.583-.644-4.032-2.258-5.713v-.848c1.886-.852 2.861-4.157 0-5.77-.556-.313-1.664-.44-3.129-.434zm-.082 1.16c2.398 0 2.72 1.412 2.763 2.342.043.93-.83 2.262-2.763 2.262zM.933 41.598c.281 1.57 1.17 2.27 1.669 3.465 1.721 4.44 2.755 9.538 5.87 13.202 5.7 6.704 16.407 11.422 22.446 11.067.411.487.933.467 1.501.495.81.796 1.844.687 2.832-.42.46-.096 1.179.03 1.572-.532 9.675-2.633 18.936-8.47 22.39-17.585.85-.223 1.356-1.365.637-2.142.063-.296.118-.594.164-.894-.013-2.13 2.607-5.166 2.553-6.522-.055-1.356-1.97-2.579-4.832-2.579-2.281 0-5.132 1.223-5.125 2.713.006 1.491 2.057 4.194 1.915 5.982-.84.55-.993 1.282-.674 2.133-3.501 6.319-10.695 8.63-17.02 9.35-.543-.358-1.031-.516-1.552-.481-.967-.608-1.957-.692-2.805.116-.529.014-1.173-.24-1.587.126-4.208-.66-6.942-3.455-9.969-6.157-1.692-2.233-2.04-5.14-1.314-7.81.405-1.446 1.704-2.734 1.767-4.328-.056-2.36-4.451-3.923-10.055-3.937C5.71 36.846.933 38.773.933 41.598z"/><path style="display:inline;fill:#956c29;fill-opacity:1;stroke:#956c29;stroke-width:.425354;stroke-opacity:1" d="M4.364 41.472a7.014 2.549 0 0 0 7.013 2.549 7.014 2.549 0 0 0 7.014-2.55 7.014 2.549 0 0 0-7.014-2.548 7.014 2.549 0 0 0-7.013 2.549zm50.254.634c.035.684 1.31 1.103 2.976 1.028 1.665-.076 2.988-.691 2.953-1.374-.034-.684-1.31-1.103-2.975-1.028-1.665.076-2.988.691-2.954 1.374z"/><use xlink:href="#a" transform="rotate(90 32.701 4.47)" width="100%" height="100%" style="display:inline"/><g id="a" style="display:inline"><path style="display:inline;fill:#f3c242;fill-opacity:1;stroke:#956c29;stroke-width:.529167;stroke-linecap:butt;stroke-linejoin:miter;stroke-miterlimit:4;stroke-dasharray:none;stroke-opacity:1" d="m138.335 46.443 2.421-16.798 2.705 16.798c.47 2.008-5.558 2.009-5.126 0z" transform="rotate(-44.4 50.002 151.854)"/><path style="display:inline;fill:none;stroke:#956c29;stroke-width:.529167;stroke-linecap:butt;stroke-linejoin:miter;stroke-miterlimit:4;stroke-dasharray:none;stroke-opacity:1" d="M140.756 29.645V47.16" transform="rotate(-44.4 50.002 151.854)"/><path style="display:inline;fill:#f3c242;fill-opacity:1;stroke:#956c29;stroke-width:.529167;stroke-linecap:butt;stroke-linejoin:miter;stroke-miterlimit:4;stroke-dasharray:none;stroke-opacity:1" d="M138.335 46.443c-.6 0-1.101.309-1.119.69l-.505 10.622c-.063.758.858.44 1.11-.529.206-.789-.035-2.35.745-2.35.412 0 1.649.335 2.288.332.64-.003 1.706-.346 2.29-.331.848.021.597 1.44.756 2.349.152.87 1.434 1.333 1.246.53l-.661-10.693c-.014-.376-.362-.62-1.024-.62-.36.447-.724.733-1.335.75h-2.416c-.625 0-.99-.235-1.375-.75zm.573 2.01s1.318.14 1.938.14c.62 0 1.939-.14 1.939-.14s.587.193.587 1.134c0 .942-.587 1.135-.587 1.135s-1.318-.137-1.939-.134c-.62.002-1.938.147-1.938.147s-.588-.285-.588-1.141c0-.857.588-1.14.588-1.14zm-.295 3.175s1.613.14 2.233.14c.62 0 2.234-.14 2.234-.14s.587.193.587 1.134c0 .942-.587 1.135-.587 1.135s-1.613-.137-2.234-.134c-.62.002-2.233.147-2.233.147s-.588-.285-.588-1.141c0-.857.588-1.14.588-1.14z" transform="rotate(-44.4 50.002 151.854)"/></g><path style="display:inline;fill:none;stroke:#956c29;stroke-width:.529167;stroke-linecap:butt;stroke-linejoin:miter;stroke-miterlimit:4;stroke-dasharray:none;stroke-opacity:1" d="M3.98 49.124c1.557 2.325 14.194 1.769 15.251-.946M3.788 48.16l2.074-1.229 2.107 2.137 2.373-1.845 2.69 1.773 2.34-2.118 2.346 1.303 1.75-2.466m16.504-9.78c.535-.252 1.104-.121 1.668-.045m-6.87-.046c.532-.102 1.08-.063 1.63-.015m6.537 2.962.127 2.786m-1.081-2.605.127 2.786m-1.08-2.702.127 2.786m-1.082-2.888.128 2.786m-1.082-2.937.128 2.791m-1.953-2.97v2.786m-.954-2.605v2.786m-.954-2.702v2.785m-.954-2.887v2.786m-.954-2.938v2.792m7.605-7.236c-.804-1.486-3.044-4.698-4.263-8.552M.932 41.598c.776 5.926 20.16 6.03 20.438-.801m9.568 28.663-.05-10.368m5.906.413.03 9.37M35.278 58.85l-.028 10.557m-2.777-10.441-.055 10.861m20.19-27.96c.24 4.215 9.736 3.52 9.958-.135M28.514 15.43c.354-.434 2.11-1.58 3.307-1.775m1.494-.004c1.182.195 3.152 1.417 3.502 1.847m-4.151 9.144-1.288 6.388m9.304-5.746c1.397-.323 2.99-1.661 2.99-1.661m-2.912-3.143c1.398.324 2.913 1.733 2.913 1.733m-18.974 3.12c-1.398-.323-2.991-1.66-2.991-1.66m2.912-3.143c-1.397.323-2.912 1.732-2.912 1.732m9.223 1.007a1.783 1.783 0 0 0 3.485-.074m.009-.618a1.784 1.784 0 0 0-1.355-1.455m-.841.008c-.7.176-1.235.766-1.33 1.495M59.212 51.29l-5.361-1.309m6.001-.823-5.327-1.31"/></svg>